<svg width="24" height="24" viewBox="0 0 24 24" fill="none" xmlns="http://www.w3.org/2000/svg">
<g clip-path="url(#clip0_4_2080)">
<path d="M12.0024 0C5.3776 0 0.00610352 5.3715 0.00610352 11.9977C0.00610352 17.298 3.4426 21.795 8.2111 23.382C8.8111 23.4915 9.0001 23.136 9.0001 22.818C9.0001 22.533 9.0061 21.7365 9.0001 20.7352C5.66335 21.4605 4.97185 19.155 4.97185 19.155C4.4266 17.769 3.6406 17.4 3.6406 17.4C2.5516 16.656 3.72235 16.6702 3.72235 16.6702C4.9261 16.755 5.5606 17.907 5.5606 17.907C6.63085 19.7393 8.36785 19.2097 9.0511 18.9037C9.1606 18.1283 9.4711 17.5995 9.81385 17.2995C7.14985 16.9965 4.34935 15.9675 4.34935 11.37C4.34935 10.0597 4.8166 8.9895 5.58385 8.151C5.4601 7.848 5.0476 6.62775 5.7016 4.9755C5.7016 4.9755 6.70885 4.653 9.0001 6.20625C9.9571 5.94 10.9839 5.80725 12.0039 5.80275C13.0231 5.80725 14.0491 5.94 15.0076 6.20625C17.2989 4.65375 18.3046 4.9755 18.3046 4.9755C18.9586 6.62775 18.5469 7.848 18.4239 8.151C19.1911 8.9895 19.6569 10.0597 19.6569 11.37C19.6569 15.9795 16.8519 16.9935 14.1789 17.2897C14.6094 17.661 15.0001 18.381 15.0001 19.5C15.0001 21 15.0001 22.4265 15.0001 22.821C15.0001 23.142 15.1936 23.4967 15.8026 23.3805C20.5666 21.7913 24.0001 17.2965 24.0001 11.9977C24.0001 5.3715 18.6286 0 12.0024 0Z" fill="white"/>
</g>
<defs>
<clipPath id="clip0_4_2080">
<rect width="24" height="24" fill="white"/>
</clipPath>
</defs>
</svg>
