<svg width="257" height="56" viewBox="0 0 257 56" fill="none" xmlns="http://www.w3.org/2000/svg">
<g clip-path="url(#clip0_6_265)">
<path d="M51.7832 18.3338L37.6773 4.20821C36.0068 2.62873 34.017 1.426 31.8422 0.681158C27.0229 -0.923625 22.2266 0.32902 18.3423 4.20821L4.20177 18.3338C2.62255 20.0045 1.42001 21.9947 0.675289 24.1699C-0.935001 28.99 0.317447 33.787 4.20177 37.6662L18.325 51.7918C19.9928 53.3718 21.9809 54.5747 24.1544 55.3188C25.471 55.764 26.8508 55.994 28.2407 56C31.6286 56 34.8723 54.5684 37.6543 51.7918L51.7717 37.6662C53.353 35.996 54.5575 34.0058 55.304 31.8301C56.9085 27.01 55.656 22.2187 51.7717 18.3338H51.7832ZM29.0776 8.30676C30.1445 8.64888 31.1277 9.21135 31.9634 9.95773L36.1363 14.1371L27.9983 22.2707L19.8603 14.1313L24.0562 9.92886C25.1817 8.80897 26.7689 7.61981 29.0891 8.30098L29.0776 8.30676ZM8.31118 26.9061C8.65432 25.8382 9.21876 24.8547 9.96765 24.0198L14.1405 19.8462L22.2786 27.9856L14.1348 36.1249L9.93879 31.9225C8.81332 30.8026 7.63013 29.2151 8.30541 26.8945L8.31118 26.9061ZM26.9074 47.6759C25.8392 47.3368 24.8554 46.774 24.0216 46.0249L19.8603 41.8975L27.9983 33.7524L36.1363 41.8917L31.9403 46.0942C30.8148 47.2141 29.2334 48.4032 26.9074 47.7221V47.6759ZM47.6854 29.117C47.3424 30.1837 46.7801 31.1668 46.0347 32.0033L41.8618 36.1249L33.7238 27.9856L41.8618 19.8462L46.0578 24.0429C47.1832 25.1628 48.3664 26.7502 47.6912 29.0708" fill="#00ABE4"/>
<path d="M82.2402 47.8895H89.5298V27.6565C89.5298 21.4163 85.7378 16.8098 79.2678 16.8098C76.1165 16.8098 72.7401 18.2068 70.9855 20.7756V5.76682H63.7017V47.8722H70.9855V31.9109C70.9855 28.1818 72.8555 23.5176 77.2246 23.5176C81.0743 23.5176 82.2402 25.6707 82.2402 29.1747V47.8895ZM111.676 35.9229C111.676 40.3736 108.495 42.8038 103.988 42.8038C101.731 42.8038 99.7052 41.3607 99.7052 39.0459C99.7052 36.6156 101.846 35.2879 104.045 35.1147L111.676 34.5375V35.9229ZM117.747 48.3571C118.991 48.3977 120.225 48.1195 121.332 47.5489V42.2266C121.029 42.2978 120.719 42.3365 120.408 42.342C119.196 42.342 118.734 41.8225 118.734 40.4313V29.2728C118.825 27.2119 118.53 25.1522 117.863 23.2001C116.131 18.6859 111.733 17.0696 106.591 17.0696C99.8784 17.0696 94.4992 20.0771 94.0952 26.8426H101.096C101.269 24.066 103.232 22.5651 106.591 22.5651C110.694 22.5651 111.676 24.47 111.676 27.3044V29.1574L102.822 29.7751C97.0964 30.1791 92.6465 33.4753 92.6465 39.2017C92.6465 44.12 96.3461 48.6284 103.52 48.6284C107.797 48.6284 111.266 46.5502 112.657 44.12C112.888 46.3771 114.619 48.3397 117.742 48.3397L117.747 48.3571ZM140.459 24.2218C140.845 24.2246 141.23 24.2497 141.613 24.2969V17.4852C141.301 17.4852 140.99 17.4159 140.684 17.4159C137.152 17.4159 133.567 18.8591 132.182 22.3284L131.542 17.82H125.406V47.8953H132.696V32.7422C132.696 27.8817 135.357 24.2391 140.442 24.2391L140.459 24.2218ZM163.268 47.9068H170.5V27.8239C170.5 21.578 166.737 17.0696 160.319 17.0696C156.856 17.0696 153.266 18.5127 151.471 21.6876L150.952 17.8142H144.897V47.8895H152.123V35.6342C152.123 33.0885 152.066 29.9656 153.11 27.593C154.091 25.3937 155.771 23.7773 158.305 23.7773C162.12 23.7773 163.274 25.919 163.274 29.446L163.268 47.9068ZM194.233 29.8616H181.236C181.204 28.166 181.756 26.5109 182.8 25.1743C183.401 24.4239 184.169 23.8243 185.043 23.4234C185.916 23.0225 186.872 22.8314 187.833 22.8653C188.672 22.8204 189.512 22.9512 190.298 23.2494C191.084 23.5476 191.799 24.0066 192.398 24.597C193.552 25.8728 194.193 27.6046 194.251 29.8616H194.233ZM201.477 33.1001C201.592 29.3421 201.073 25.9305 198.874 22.6286C196.392 18.8706 192.34 17.0811 187.908 17.0811C186.131 17.0293 184.363 17.341 182.712 17.9971C181.06 18.6533 179.56 19.64 178.304 20.8968C175.418 23.8466 173.969 28.1241 173.969 32.9269C173.969 37.8451 175.585 42.0649 178.586 44.957C179.841 46.1752 181.327 47.1302 182.957 47.7656C184.586 48.4011 186.327 48.7042 188.075 48.6572C191.89 48.6572 195.647 47.445 198.193 44.4375C199.347 43.0463 200.565 40.6795 200.738 38.8842H193.812C193.569 39.8485 193.068 40.7284 192.363 41.4299C191.324 42.469 190.055 42.8731 187.971 42.8731C186.301 42.8676 184.7 42.2039 183.515 41.0259C182.767 40.2439 182.186 39.3174 181.807 38.3029C181.429 37.2885 181.262 36.2075 181.316 35.1263H201.419C201.419 34.4855 201.477 33.1001 201.477 33.1001ZM211.185 26.2191C211.202 25.5174 211.432 24.8375 211.844 24.2695C212.256 23.7015 212.832 23.2722 213.493 23.0384C214.49 22.6648 215.554 22.5074 216.616 22.5766C218.052 22.5366 219.452 23.0302 220.546 23.962C221.302 24.7141 221.737 25.7302 221.758 26.7964H228.644C228.557 24.4744 227.609 22.2681 225.983 20.6082C223.79 18.2299 220.148 17.0753 216.564 17.0753C212.801 17.0753 209.638 18.1721 207.427 20.0829C206.44 20.9071 205.652 21.9436 205.121 23.1151C204.591 24.2865 204.331 25.5627 204.363 26.8483C204.363 30.664 207.139 34.0179 211.242 34.8896C213.903 35.4668 216.91 35.64 219.571 36.0441C221.418 36.3327 222.578 37.4873 222.578 39.2248C222.578 42.521 218.878 43.0405 216.448 43.0405C214.365 43.0405 213.037 42.6364 211.877 41.7128C211.078 40.9966 210.541 40.0333 210.354 38.9766H203.543C203.822 41.349 204.93 43.5466 206.671 45.1821C209.159 47.5547 212.57 48.6457 216.391 48.6457C220.494 48.6457 224.252 47.6066 226.681 45.1821C227.545 44.3193 228.222 43.2886 228.672 42.1538C229.122 41.019 229.334 39.8041 229.296 38.5841C229.296 33.839 225.833 30.8314 221.083 30.081C218.134 29.6192 217.383 29.5615 214.665 29.2151C213.049 28.9842 211.202 28.3435 211.202 26.2076L211.185 26.2191ZM249.503 26.7849H256.365C256.279 24.4629 255.33 22.2565 253.704 20.5966C251.505 18.2299 247.863 17.0753 244.302 17.0753C240.545 17.0753 237.376 18.1721 235.166 20.0829C234.179 20.9071 233.391 21.9436 232.86 23.1151C232.329 24.2865 232.07 25.5627 232.101 26.8483C232.101 30.664 234.877 34.0179 238.981 34.8896C241.642 35.4668 244.649 35.64 247.309 36.0441C249.156 36.3327 250.316 37.4873 250.316 39.2248C250.316 42.521 246.611 43.0405 244.187 43.0405C242.103 43.0405 240.776 42.6364 239.616 41.7128C238.816 40.9966 238.28 40.0333 238.092 38.9766H231.258C231.538 41.3504 232.648 43.5487 234.392 45.1821C236.874 47.5547 240.285 48.6457 244.106 48.6457C248.21 48.6457 251.967 47.6066 254.397 45.1821C255.258 44.3183 255.933 43.2872 256.381 42.1525C256.829 41.0177 257.039 39.8033 257 38.5841C257 33.839 253.537 30.8314 248.787 30.081C245.838 29.6192 245.087 29.5615 242.369 29.2151C240.753 28.9842 238.906 28.3435 238.906 26.2076C238.923 25.5059 239.153 24.826 239.565 24.258C239.978 23.69 240.553 23.2606 241.215 23.0269C242.211 22.6533 243.275 22.4958 244.337 22.5651C245.773 22.5251 247.174 23.0186 248.267 23.9505C249.025 24.702 249.461 25.718 249.485 26.7849" fill="#231F20"/>
</g>
<defs>
<clipPath id="clip0_6_265">
<rect width="257" height="56" fill="white"/>
</clipPath>
</defs>
</svg>
