<svg width="221" height="42" viewBox="0 0 221 42" fill="none" xmlns="http://www.w3.org/2000/svg">
<g clip-path="url(#clip0_171_293)">
<path d="M31.1491 19.1326L25.6604 13.6372C25.0104 13.0227 24.2361 12.5548 23.3899 12.265C21.5147 11.6407 19.6484 12.128 18.137 13.6372L12.6349 19.1326C12.0204 19.7826 11.5525 20.5568 11.2627 21.4031C10.6361 23.2783 11.1235 25.1445 12.6349 26.6537L18.1303 32.1491C18.7793 32.7638 19.5528 33.2318 20.3985 33.5213C20.9109 33.6945 21.4477 33.784 21.9885 33.7863C23.3068 33.7863 24.5689 33.2293 25.6514 32.1491L31.1446 26.6537C31.7599 26.0039 32.2286 25.2297 32.519 24.3832C33.1433 22.508 32.656 20.644 31.1446 19.1326H31.1491ZM22.3142 15.2317C22.7293 15.3648 23.1119 15.5836 23.4371 15.874L25.0608 17.4999L21.8942 20.6642L18.7277 17.4977L20.3604 15.8627C20.7983 15.4271 21.4159 14.9644 22.3187 15.2294L22.3142 15.2317ZM14.2339 22.4676C14.3674 22.0521 14.587 21.6695 14.8784 21.3447L16.5021 19.721L19.6687 22.8875L16.4999 26.0541L14.8672 24.4191C14.4293 23.9835 13.9689 23.3659 14.2316 22.4631L14.2339 22.4676ZM21.4698 30.5479C21.0541 30.416 20.6713 30.197 20.3469 29.9056L18.7277 28.2999L21.8942 25.1311L25.0608 28.2976L23.4281 29.9325C22.9902 30.3682 22.3748 30.8308 21.4698 30.5658V30.5479ZM29.5546 23.3277C29.4211 23.7427 29.2023 24.1252 28.9123 24.4506L27.2886 26.0541L24.122 22.8875L27.2886 19.721L28.9213 21.3537C29.3592 21.7893 29.8196 22.4069 29.5568 23.3097" fill="#00ADE4"/>
<path d="M43.0001 30.6311H45.8365V22.7596C45.8365 20.332 44.361 18.5398 41.8435 18.5398C40.6173 18.5398 39.3035 19.0833 38.6208 20.0827V14.2437H35.7866V30.6244H38.6208V24.4148C38.6208 22.964 39.3484 21.1494 41.0485 21.1494C42.5464 21.1494 43.0001 21.9871 43.0001 23.3503V30.6311ZM54.4535 25.9756C54.4535 27.7071 53.2161 28.6526 51.4622 28.6526C50.5841 28.6526 49.7958 28.0911 49.7958 27.1906C49.7958 26.2451 50.629 25.7286 51.4846 25.6612L54.4535 25.4366V25.9756ZM56.8161 30.813C57.3002 30.8288 57.7802 30.7206 58.2107 30.4986V28.428C58.0929 28.4557 57.9724 28.4708 57.8514 28.4729C57.3798 28.4729 57.2001 28.2708 57.2001 27.7295V23.3885C57.2355 22.5867 57.1205 21.7854 56.861 21.0259C56.1873 19.2697 54.476 18.6409 52.475 18.6409C49.8632 18.6409 47.7701 19.8109 47.6129 22.443H50.337C50.4044 21.3628 51.168 20.7789 52.475 20.7789C54.0717 20.7789 54.4535 21.52 54.4535 22.6227V23.3435L51.0085 23.5838C48.7807 23.741 47.0492 25.0234 47.0492 27.2512C47.0492 29.1646 48.4887 30.9186 51.2802 30.9186C52.9444 30.9186 54.2941 30.1101 54.8353 29.1646C54.9251 30.0427 55.5989 30.8063 56.8138 30.8063L56.8161 30.813ZM65.6532 21.4234C65.8034 21.4245 65.9533 21.4342 66.1024 21.4526V18.8026C65.9811 18.8026 65.8598 18.7756 65.7408 18.7756C64.3664 18.7756 62.9718 19.3371 62.4328 20.6868L62.1835 18.9328H59.7962V30.6333H62.6327V24.7382C62.6327 22.8472 63.668 21.4301 65.6465 21.4301L65.6532 21.4234ZM74.5285 30.6378H77.3425V22.8248C77.3425 20.3948 75.8782 18.6409 73.3809 18.6409C72.0335 18.6409 70.6366 19.2023 69.9382 20.4375L69.736 18.9306H67.3802V30.6311H70.1919V25.8633C70.1919 24.8729 70.1695 23.658 70.576 22.7349C70.9577 21.8793 71.6113 21.2505 72.5972 21.2505C74.0816 21.2505 74.5308 22.0837 74.5308 23.4558L74.5285 30.6378ZM86.5771 23.6175H81.5196C81.5072 22.9578 81.7221 22.314 82.1282 21.794C82.3621 21.502 82.661 21.2687 83.001 21.1128C83.341 20.9568 83.7127 20.8825 84.0866 20.8956C84.4132 20.8782 84.74 20.9291 85.0458 21.0451C85.3517 21.1611 85.63 21.3397 85.863 21.5694C86.3121 22.0657 86.5614 22.7394 86.5839 23.6175H86.5771ZM89.3956 24.8774C89.4405 23.4154 89.2384 22.0882 88.3827 20.8036C87.417 19.3416 85.8405 18.6454 84.1158 18.6454C83.4246 18.6252 82.7366 18.7465 82.094 19.0018C81.4514 19.257 80.8677 19.6409 80.3788 20.1298C79.2559 21.2774 78.6922 22.9415 78.6922 24.81C78.6922 26.7234 79.321 28.3651 80.4888 29.4902C80.9772 29.9642 81.5554 30.3357 82.1895 30.5829C82.8235 30.8301 83.5006 30.9481 84.1809 30.9298C85.6653 30.9298 87.1273 30.4582 88.1177 29.2881C88.5669 28.7469 89.0408 27.8261 89.1081 27.1277H86.4132C86.3186 27.5028 86.1237 27.8452 85.8495 28.1181C85.4453 28.5223 84.9512 28.6795 84.1405 28.6795C83.4905 28.6774 82.8676 28.4192 82.4067 27.9609C82.1154 27.6567 81.8893 27.2962 81.7422 26.9015C81.595 26.5069 81.53 26.0863 81.5511 25.6657H89.3731C89.3731 25.4164 89.3956 24.8774 89.3956 24.8774ZM93.173 22.2004C93.1797 21.9275 93.2692 21.6629 93.4296 21.442C93.59 21.221 93.8138 21.054 94.0713 20.963C94.459 20.8177 94.8731 20.7564 95.2863 20.7834C95.8452 20.7678 96.39 20.9598 96.8156 21.3223C97.1098 21.6149 97.2788 22.0102 97.2872 22.425H99.9665C99.9328 21.5217 99.5637 20.6633 98.9312 20.0175C98.0778 19.0923 96.6607 18.6431 95.266 18.6431C93.8018 18.6431 92.5711 19.0698 91.711 19.8132C91.3269 20.1339 91.0202 20.5371 90.8137 20.9928C90.6073 21.4486 90.5063 21.945 90.5185 22.4452C90.5185 23.9297 91.5987 25.2345 93.1954 25.5736C94.2307 25.7982 95.4008 25.8656 96.4361 26.0228C97.1548 26.135 97.6061 26.5842 97.6061 27.2602C97.6061 28.5425 96.1666 28.7446 95.2211 28.7446C94.4104 28.7446 93.8939 28.5874 93.4425 28.2281C93.1315 27.9495 92.9227 27.5747 92.8496 27.1636H90.1996C90.3083 28.0866 90.7394 28.9415 91.4168 29.5778C92.3847 30.5008 93.712 30.9253 95.1987 30.9253C96.7954 30.9253 98.2574 30.5211 99.2029 29.5778C99.5388 29.2421 99.8024 28.8412 99.9773 28.3997C100.152 27.9582 100.235 27.4856 100.22 27.0109C100.22 25.1649 98.8728 23.9948 97.0245 23.7029C95.8769 23.5232 95.585 23.5007 94.5272 23.366C93.8984 23.2762 93.1797 23.0269 93.1797 22.196L93.173 22.2004ZM108.083 22.4205H110.753C110.719 21.5172 110.35 20.6588 109.718 20.0131C108.862 19.0923 107.445 18.6431 106.059 18.6431C104.597 18.6431 103.364 19.0698 102.504 19.8132C102.12 20.1339 101.813 20.5371 101.607 20.9928C101.4 21.4486 101.3 21.945 101.312 22.4452C101.312 23.9297 102.392 25.2345 103.989 25.5736C105.024 25.7982 106.194 25.8656 107.229 26.0228C107.948 26.135 108.399 26.5842 108.399 27.2602C108.399 28.5425 106.958 28.7446 106.014 28.7446C105.204 28.7446 104.687 28.5874 104.236 28.2281C103.925 27.9495 103.716 27.5747 103.643 27.1636H100.984C101.092 28.0871 101.524 28.9424 102.203 29.5778C103.169 30.5008 104.496 30.9253 105.983 30.9253C107.58 30.9253 109.042 30.5211 109.987 29.5778C110.322 29.2418 110.585 28.8406 110.759 28.3992C110.933 27.9577 111.015 27.4852 111 27.0109C111 25.1649 109.653 23.9948 107.804 23.7029C106.657 23.5232 106.365 23.5007 105.307 23.366C104.678 23.2762 103.959 23.0269 103.959 22.196C103.966 21.923 104.056 21.6585 104.216 21.4375C104.377 21.2165 104.6 21.0495 104.858 20.9585C105.245 20.8132 105.66 20.7519 106.073 20.7789C106.632 20.7633 107.176 20.9553 107.602 21.3179C107.897 21.6102 108.067 22.0055 108.076 22.4205" fill="white"/>
</g>
<path d="M124.447 31.264C123.655 31.264 122.943 31.11 122.313 30.802C121.697 30.4793 121.213 29.988 120.861 29.328C120.509 28.6533 120.333 27.7807 120.333 26.71V19.912H121.323V26.578C121.323 27.8687 121.601 28.822 122.159 29.438C122.731 30.054 123.552 30.362 124.623 30.362C125.341 30.362 125.972 30.1933 126.515 29.856C127.072 29.5187 127.505 29.02 127.813 28.36C128.135 27.6853 128.297 26.864 128.297 25.896V19.912H129.287V31H128.429L128.297 28.756C127.93 29.6067 127.402 30.2373 126.713 30.648C126.023 31.0587 125.268 31.264 124.447 31.264ZM132.413 31V19.912H133.293L133.381 22.156C133.762 21.32 134.29 20.6967 134.965 20.286C135.654 19.8607 136.417 19.648 137.253 19.648C138.059 19.648 138.771 19.8093 139.387 20.132C140.003 20.4547 140.487 20.9533 140.839 21.628C141.191 22.288 141.367 23.146 141.367 24.202V31H140.377V24.356C140.377 23.0507 140.098 22.09 139.541 21.474C138.983 20.858 138.177 20.55 137.121 20.55C136.417 20.55 135.779 20.726 135.207 21.078C134.649 21.4153 134.209 21.914 133.887 22.574C133.564 23.234 133.403 24.048 133.403 25.016V31H132.413ZM144.382 31V19.912H145.372V31H144.382ZM144.888 16.986C144.683 16.986 144.5 16.9127 144.338 16.766C144.192 16.6047 144.118 16.414 144.118 16.194C144.118 15.974 144.192 15.798 144.338 15.666C144.5 15.5193 144.683 15.446 144.888 15.446C145.094 15.446 145.27 15.5193 145.416 15.666C145.578 15.798 145.658 15.974 145.658 16.194C145.658 16.414 145.578 16.6047 145.416 16.766C145.27 16.9127 145.094 16.986 144.888 16.986ZM151.999 31L147.665 19.912H148.743L152.571 29.966L156.399 19.912H157.455L153.121 31H151.999ZM163.672 31.264C162.63 31.264 161.728 31.022 160.966 30.538C160.218 30.054 159.638 29.372 159.228 28.492C158.817 27.612 158.612 26.578 158.612 25.39C158.612 24.1873 158.824 23.1607 159.25 22.31C159.69 21.4593 160.291 20.8067 161.054 20.352C161.831 19.8827 162.718 19.648 163.716 19.648C164.786 19.648 165.681 19.89 166.4 20.374C167.118 20.8433 167.661 21.4667 168.028 22.244C168.394 23.0213 168.578 23.872 168.578 24.796C168.578 24.9427 168.578 25.082 168.578 25.214C168.578 25.346 168.57 25.5 168.556 25.676H159.316V24.818H167.61C167.595 23.3953 167.221 22.3247 166.488 21.606C165.754 20.8873 164.816 20.528 163.672 20.528C162.968 20.528 162.308 20.6893 161.692 21.012C161.076 21.3347 160.57 21.8333 160.174 22.508C159.792 23.1827 159.602 24.0407 159.602 25.082V25.478C159.602 26.5927 159.792 27.5167 160.174 28.25C160.555 28.9687 161.054 29.504 161.67 29.856C162.286 30.208 162.953 30.384 163.672 30.384C164.596 30.384 165.358 30.1713 165.96 29.746C166.561 29.306 167.001 28.69 167.28 27.898H168.27C168.079 28.5433 167.778 29.1227 167.368 29.636C166.972 30.1493 166.466 30.5527 165.85 30.846C165.234 31.1247 164.508 31.264 163.672 31.264ZM171.063 31V19.912H171.943L172.053 22.156C172.302 21.5693 172.625 21.0927 173.021 20.726C173.432 20.3593 173.916 20.088 174.473 19.912C175.03 19.736 175.661 19.648 176.365 19.648V20.66H175.969C175.529 20.66 175.074 20.7187 174.605 20.836C174.15 20.9533 173.725 21.166 173.329 21.474C172.948 21.7673 172.64 22.1927 172.405 22.75C172.17 23.3073 172.053 24.0187 172.053 24.884V31H171.063ZM182.218 31.264C181.411 31.264 180.685 31.132 180.04 30.868C179.394 30.5893 178.874 30.1787 178.478 29.636C178.096 29.0933 177.854 28.4187 177.752 27.612H178.808C178.866 28.1987 179.05 28.6973 179.358 29.108C179.68 29.5187 180.091 29.834 180.59 30.054C181.088 30.2593 181.638 30.362 182.24 30.362C182.841 30.362 183.347 30.2667 183.758 30.076C184.183 29.8853 184.506 29.6213 184.726 29.284C184.96 28.932 185.078 28.5433 185.078 28.118C185.078 27.5753 184.96 27.1573 184.726 26.864C184.506 26.556 184.168 26.3213 183.714 26.16C183.259 25.9987 182.687 25.852 181.998 25.72C181.44 25.6173 180.934 25.4853 180.48 25.324C180.04 25.1627 179.658 24.9647 179.336 24.73C179.013 24.4953 178.764 24.2093 178.588 23.872C178.426 23.52 178.346 23.124 178.346 22.684C178.346 22.0827 178.492 21.5547 178.786 21.1C179.094 20.6453 179.519 20.2933 180.062 20.044C180.604 19.78 181.25 19.648 181.998 19.648C183.054 19.648 183.926 19.9267 184.616 20.484C185.32 21.0413 185.723 21.8627 185.826 22.948H184.814C184.77 22.2293 184.498 21.65 184 21.21C183.516 20.77 182.841 20.55 181.976 20.55C181.14 20.55 180.494 20.7407 180.04 21.122C179.6 21.4887 179.38 21.98 179.38 22.596C179.38 22.948 179.468 23.2633 179.644 23.542C179.834 23.8207 180.135 24.07 180.546 24.29C180.956 24.4953 181.506 24.6713 182.196 24.818C182.914 24.95 183.567 25.1187 184.154 25.324C184.755 25.5293 185.232 25.8373 185.584 26.248C185.936 26.6587 186.112 27.2453 186.112 28.008C186.112 28.6387 185.95 29.2033 185.628 29.702C185.32 30.186 184.872 30.5673 184.286 30.846C183.714 31.1247 183.024 31.264 182.218 31.264ZM188.941 31V19.912H189.931V31H188.941ZM189.447 16.986C189.242 16.986 189.058 16.9127 188.897 16.766C188.75 16.6047 188.677 16.414 188.677 16.194C188.677 15.974 188.75 15.798 188.897 15.666C189.058 15.5193 189.242 15.446 189.447 15.446C189.652 15.446 189.828 15.5193 189.975 15.666C190.136 15.798 190.217 15.974 190.217 16.194C190.217 16.414 190.136 16.6047 189.975 16.766C189.828 16.9127 189.652 16.986 189.447 16.986ZM197.064 31C196.477 31 195.979 30.912 195.568 30.736C195.172 30.56 194.864 30.2593 194.644 29.834C194.439 29.394 194.336 28.8073 194.336 28.074V20.77H192.4V19.912H194.336L194.49 17.492H195.326V19.912H198.802V20.77H195.326V28.052C195.326 28.8293 195.48 29.372 195.788 29.68C196.096 29.988 196.617 30.142 197.35 30.142H198.582V31H197.064ZM202.175 35.84L204.969 29.768H204.595L200.041 19.912H201.141L205.299 29.02L209.501 19.912H210.557L203.209 35.84H202.175Z" fill="white"/>
<defs>
<clipPath id="clip0_171_293">
<rect width="100" height="21.7863" fill="white" transform="translate(11 12)"/>
</clipPath>
</defs>
</svg>
