<svg width="526" height="52" viewBox="0 0 526 52" fill="none" xmlns="http://www.w3.org/2000/svg">
<path d="M226.12 40.48C224.6 40.48 223.253 40.1867 222.08 39.6C220.933 38.9867 220.04 38.0533 219.4 36.8C218.76 35.5467 218.44 33.96 218.44 32.04V19.84H221.24V31.72C221.24 33.8533 221.707 35.44 222.64 36.48C223.6 37.52 224.92 38.04 226.6 38.04C227.8 38.04 228.867 37.76 229.8 37.2C230.76 36.6133 231.507 35.7733 232.04 34.68C232.6 33.5867 232.88 32.24 232.88 30.64V19.84H235.68V40H233.12L232.96 36.4C232.32 37.68 231.387 38.68 230.16 39.4C228.96 40.12 227.613 40.48 226.12 40.48ZM240.579 40V19.84H243.139L243.299 23.44C243.939 22.16 244.859 21.16 246.059 20.44C247.286 19.72 248.646 19.36 250.139 19.36C251.686 19.36 253.032 19.6667 254.179 20.28C255.326 20.8933 256.219 21.8267 256.859 23.08C257.499 24.3067 257.819 25.88 257.819 27.8V40H255.019V28.12C255.019 25.9867 254.552 24.4 253.619 23.36C252.686 22.32 251.366 21.8 249.659 21.8C248.459 21.8 247.379 22.0933 246.419 22.68C245.486 23.24 244.739 24.0667 244.179 25.16C243.646 26.2533 243.379 27.6 243.379 29.2V40H240.579ZM262.718 40V19.84H265.518V40H262.718ZM264.118 15.08C263.558 15.08 263.078 14.8933 262.678 14.52C262.278 14.12 262.078 13.6267 262.078 13.04C262.078 12.4267 262.265 11.9467 262.638 11.6C263.038 11.2267 263.531 11.04 264.118 11.04C264.651 11.04 265.118 11.2267 265.518 11.6C265.918 11.9467 266.118 12.4267 266.118 13.04C266.118 13.6267 265.918 14.12 265.518 14.52C265.145 14.8933 264.678 15.08 264.118 15.08ZM276.696 40L269.016 19.84H271.936L278.336 37.28L284.736 19.84H287.616L279.896 40H276.696ZM298.264 40.48C296.398 40.48 294.744 40.04 293.304 39.16C291.891 38.28 290.771 37.0533 289.944 35.48C289.144 33.88 288.744 32.0133 288.744 29.88C288.744 27.7467 289.144 25.8933 289.944 24.32C290.744 22.7467 291.864 21.5333 293.304 20.68C294.771 19.8 296.451 19.36 298.344 19.36C300.291 19.36 301.944 19.8 303.304 20.68C304.664 21.56 305.691 22.7067 306.384 24.12C307.104 25.5333 307.464 27.08 307.464 28.76C307.464 29.0267 307.464 29.3067 307.464 29.6C307.464 29.8667 307.451 30.1867 307.424 30.56H290.864V28.2H304.744C304.664 26.1467 304.011 24.56 302.784 23.44C301.584 22.32 300.064 21.76 298.224 21.76C297.051 21.76 295.944 22.04 294.904 22.6C293.864 23.1333 293.024 23.9333 292.384 25C291.771 26.04 291.464 27.36 291.464 28.96V30C291.464 31.8133 291.784 33.32 292.424 34.52C293.091 35.72 293.944 36.6133 294.984 37.2C296.024 37.7867 297.118 38.08 298.264 38.08C299.784 38.08 301.038 37.7467 302.024 37.08C303.011 36.3867 303.718 35.44 304.144 34.24H306.904C306.584 35.4133 306.038 36.48 305.264 37.44C304.491 38.3733 303.518 39.12 302.344 39.68C301.171 40.2133 299.811 40.48 298.264 40.48ZM311.207 40V19.84H313.767L313.967 23.72C314.394 22.7867 314.967 22 315.687 21.36C316.407 20.72 317.274 20.2267 318.287 19.88C319.301 19.5333 320.447 19.36 321.727 19.36V22.28H320.647C319.794 22.28 318.967 22.4 318.167 22.64C317.367 22.8533 316.661 23.2267 316.047 23.76C315.434 24.2933 314.941 25.0133 314.567 25.92C314.194 26.8267 314.007 27.96 314.007 29.32V40H311.207ZM332.26 40.48C330.66 40.48 329.247 40.2133 328.02 39.68C326.82 39.1467 325.847 38.3867 325.1 37.4C324.38 36.3867 323.94 35.1867 323.78 33.8H326.7C326.834 34.5733 327.127 35.28 327.58 35.92C328.06 36.56 328.7 37.0667 329.5 37.44C330.3 37.8133 331.247 38 332.34 38C333.354 38 334.18 37.8533 334.82 37.56C335.487 37.2667 335.98 36.8667 336.3 36.36C336.647 35.8267 336.82 35.24 336.82 34.6C336.82 33.72 336.607 33.04 336.18 32.56C335.78 32.0533 335.194 31.68 334.42 31.44C333.647 31.2 332.714 30.9733 331.62 30.76C330.714 30.6 329.847 30.3867 329.02 30.12C328.22 29.8533 327.487 29.5067 326.82 29.08C326.18 28.6533 325.66 28.12 325.26 27.48C324.887 26.8133 324.7 26.04 324.7 25.16C324.7 24.0133 324.98 23.0133 325.54 22.16C326.127 21.28 326.954 20.6 328.02 20.12C329.087 19.6133 330.34 19.36 331.78 19.36C333.834 19.36 335.514 19.88 336.82 20.92C338.127 21.9333 338.887 23.4267 339.1 25.4H336.3C336.194 24.3067 335.74 23.44 334.94 22.8C334.14 22.16 333.06 21.84 331.7 21.84C330.367 21.84 329.34 22.12 328.62 22.68C327.927 23.2133 327.58 23.9467 327.58 24.88C327.58 25.4667 327.767 25.9733 328.14 26.4C328.514 26.8267 329.06 27.2 329.78 27.52C330.527 27.8133 331.434 28.0667 332.5 28.28C333.78 28.52 334.954 28.84 336.02 29.24C337.114 29.6133 337.994 30.2 338.66 31C339.354 31.7733 339.7 32.88 339.7 34.32C339.727 35.52 339.434 36.5867 338.82 37.52C338.207 38.4533 337.34 39.1867 336.22 39.72C335.127 40.2267 333.807 40.48 332.26 40.48ZM344.265 40V19.84H347.065V40H344.265ZM345.665 15.08C345.105 15.08 344.625 14.8933 344.225 14.52C343.825 14.12 343.625 13.6267 343.625 13.04C343.625 12.4267 343.812 11.9467 344.185 11.6C344.585 11.2267 345.078 11.04 345.665 11.04C346.198 11.04 346.665 11.2267 347.065 11.6C347.465 11.9467 347.665 12.4267 347.665 13.04C347.665 13.6267 347.465 14.12 347.065 14.52C346.692 14.8933 346.225 15.08 345.665 15.08ZM359.963 40C358.816 40 357.829 39.8267 357.003 39.48C356.176 39.1067 355.536 38.5067 355.083 37.68C354.656 36.8267 354.443 35.6667 354.443 34.2V22.24H350.923V19.84H354.443L354.843 15.16H357.243V19.88H363.283V22.24H357.243V34.2C357.243 35.5333 357.509 36.44 358.043 36.92C358.576 37.3733 359.523 37.6 360.883 37.6H362.963V40H359.963ZM368.915 48.8L373.875 37.76H372.795L364.835 19.84H367.875L374.755 35.84L381.995 19.84H384.875L371.835 48.8H368.915ZM398.009 48.8V19.84H400.569L400.809 23.48C401.235 22.76 401.795 22.0933 402.489 21.48C403.182 20.84 404.009 20.3333 404.969 19.96C405.955 19.56 407.075 19.36 408.329 19.36C410.275 19.36 411.969 19.8267 413.409 20.76C414.875 21.6933 416.009 22.96 416.809 24.56C417.609 26.1333 418.009 27.9333 418.009 29.96C418.009 31.9867 417.595 33.8 416.769 35.4C415.969 36.9733 414.849 38.2133 413.409 39.12C411.969 40.0267 410.262 40.48 408.289 40.48C406.582 40.48 405.075 40.12 403.769 39.4C402.489 38.6533 401.502 37.6133 400.809 36.28V48.8H398.009ZM408.089 38.04C409.475 38.04 410.702 37.7067 411.769 37.04C412.835 36.3467 413.662 35.4 414.249 34.2C414.862 33 415.169 31.5733 415.169 29.92C415.169 28.2933 414.862 26.8667 414.249 25.64C413.662 24.4133 412.835 23.4667 411.769 22.8C410.702 22.1333 409.475 21.8 408.089 21.8C406.702 21.8 405.475 22.1333 404.409 22.8C403.342 23.4667 402.502 24.4133 401.889 25.64C401.275 26.84 400.969 28.2667 400.969 29.92C400.969 31.5467 401.275 32.9733 401.889 34.2C402.502 35.4 403.342 36.3467 404.409 37.04C405.475 37.7067 406.702 38.04 408.089 38.04ZM428.453 40.48C426.827 40.48 425.467 40.1867 424.373 39.6C423.307 39.0133 422.507 38.2533 421.973 37.32C421.467 36.3867 421.213 35.36 421.213 34.24C421.213 32.8533 421.56 31.68 422.253 30.72C422.973 29.76 423.973 29.04 425.253 28.56C426.56 28.08 428.053 27.84 429.733 27.84H435.173C435.173 26.5333 434.973 25.4267 434.573 24.52C434.173 23.6133 433.587 22.9333 432.813 22.48C432.067 22 431.107 21.76 429.933 21.76C428.547 21.76 427.36 22.1067 426.373 22.8C425.387 23.4933 424.773 24.5067 424.533 25.84H421.613C421.773 24.4267 422.253 23.24 423.053 22.28C423.88 21.32 424.893 20.6 426.093 20.12C427.32 19.6133 428.6 19.36 429.933 19.36C431.773 19.36 433.28 19.72 434.453 20.44C435.653 21.1333 436.533 22.0933 437.093 23.32C437.68 24.5467 437.973 25.96 437.973 27.56V40H435.413L435.293 36.32C435.027 36.88 434.68 37.4133 434.253 37.92C433.853 38.4267 433.373 38.8667 432.813 39.24C432.28 39.6133 431.653 39.9067 430.933 40.12C430.213 40.36 429.387 40.48 428.453 40.48ZM428.773 38C429.787 38 430.68 37.8 431.453 37.4C432.227 37 432.893 36.4667 433.453 35.8C434.013 35.1333 434.44 34.3733 434.733 33.52C435.027 32.6667 435.173 31.8 435.173 30.92V30.2H429.933C428.52 30.2 427.387 30.3733 426.533 30.72C425.68 31.0667 425.067 31.5333 424.693 32.12C424.32 32.7067 424.133 33.3867 424.133 34.16C424.133 34.9333 424.307 35.6133 424.653 36.2C425.027 36.76 425.56 37.2 426.253 37.52C426.947 37.84 427.787 38 428.773 38ZM442.463 40V19.84H445.023L445.223 23.72C445.65 22.7867 446.223 22 446.943 21.36C447.663 20.72 448.53 20.2267 449.543 19.88C450.557 19.5333 451.703 19.36 452.983 19.36V22.28H451.903C451.05 22.28 450.223 22.4 449.423 22.64C448.623 22.8533 447.917 23.2267 447.303 23.76C446.69 24.2933 446.197 25.0133 445.823 25.92C445.45 26.8267 445.263 27.96 445.263 29.32V40H442.463ZM463.757 40C462.61 40 461.623 39.8267 460.797 39.48C459.97 39.1067 459.33 38.5067 458.877 37.68C458.45 36.8267 458.237 35.6667 458.237 34.2V22.24H454.717V19.84H458.237L458.637 15.16H461.037V19.88H467.077V22.24H461.037V34.2C461.037 35.5333 461.303 36.44 461.837 36.92C462.37 37.3733 463.317 37.6 464.677 37.6H466.757V40H463.757ZM470.629 40V19.84H473.189L473.349 23.44C473.989 22.16 474.909 21.16 476.109 20.44C477.336 19.72 478.696 19.36 480.189 19.36C481.736 19.36 483.082 19.6667 484.229 20.28C485.376 20.8933 486.269 21.8267 486.909 23.08C487.549 24.3067 487.869 25.88 487.869 27.8V40H485.069V28.12C485.069 25.9867 484.602 24.4 483.669 23.36C482.736 22.32 481.416 21.8 479.709 21.8C478.509 21.8 477.429 22.0933 476.469 22.68C475.536 23.24 474.789 24.0667 474.229 25.16C473.696 26.2533 473.429 27.6 473.429 29.2V40H470.629ZM501.008 40.48C499.141 40.48 497.488 40.04 496.048 39.16C494.635 38.28 493.515 37.0533 492.688 35.48C491.888 33.88 491.488 32.0133 491.488 29.88C491.488 27.7467 491.888 25.8933 492.688 24.32C493.488 22.7467 494.608 21.5333 496.048 20.68C497.515 19.8 499.195 19.36 501.088 19.36C503.035 19.36 504.688 19.8 506.048 20.68C507.408 21.56 508.435 22.7067 509.128 24.12C509.848 25.5333 510.208 27.08 510.208 28.76C510.208 29.0267 510.208 29.3067 510.208 29.6C510.208 29.8667 510.195 30.1867 510.168 30.56H493.608V28.2H507.488C507.408 26.1467 506.755 24.56 505.528 23.44C504.328 22.32 502.808 21.76 500.968 21.76C499.795 21.76 498.688 22.04 497.648 22.6C496.608 23.1333 495.768 23.9333 495.128 25C494.515 26.04 494.208 27.36 494.208 28.96V30C494.208 31.8133 494.528 33.32 495.168 34.52C495.835 35.72 496.688 36.6133 497.728 37.2C498.768 37.7867 499.861 38.08 501.008 38.08C502.528 38.08 503.781 37.7467 504.768 37.08C505.755 36.3867 506.461 35.44 506.888 34.24H509.648C509.328 35.4133 508.781 36.48 508.008 37.44C507.235 38.3733 506.261 39.12 505.088 39.68C503.915 40.2133 502.555 40.48 501.008 40.48ZM513.951 40V19.84H516.511L516.711 23.72C517.138 22.7867 517.711 22 518.431 21.36C519.151 20.72 520.018 20.2267 521.031 19.88C522.044 19.5333 523.191 19.36 524.471 19.36V22.28H523.391C522.538 22.28 521.711 22.4 520.911 22.64C520.111 22.8533 519.404 23.2267 518.791 23.76C518.178 24.2933 517.684 25.0133 517.311 25.92C516.938 26.8267 516.751 27.96 516.751 29.32V40H513.951Z" fill="white"/>
<g clip-path="url(#clip0_3699_122)">
<path d="M40.9027 16.7325L29.7607 5.3816C28.4412 4.11237 26.8695 3.14589 25.1516 2.54736C21.3449 1.2578 17.5564 2.26439 14.4883 5.3816L3.31891 16.7325C2.07151 18.0751 1.12164 19.6743 0.533404 21.4222C-0.738538 25.2955 0.25075 29.1503 3.31891 32.2675L14.4746 43.6184C15.792 44.8881 17.3623 45.8547 19.0791 46.4526C20.1191 46.8103 21.209 46.9952 22.3068 47C24.9829 47 27.5451 45.8496 29.7425 43.6184L40.8936 32.2675C42.1427 30.9253 43.0941 29.3261 43.6837 27.5778C44.9511 23.7045 43.9618 19.8543 40.8936 16.7325H40.9027ZM22.9679 8.67507C23.8106 8.94999 24.5872 9.40198 25.2474 10.0017L28.5435 13.3602L22.1154 19.8961L15.6873 13.3555L19.0016 9.97855C19.8906 9.07864 21.1443 8.12306 22.977 8.67043L22.9679 8.67507ZM6.56486 23.621C6.83591 22.7628 7.28175 21.9725 7.87328 21.3016L11.1694 17.9478L17.5975 24.4884L11.1648 31.029L7.85049 27.652C6.96149 26.7521 6.02691 25.4764 6.56031 23.6117L6.56486 23.621ZM21.2537 40.311C20.4099 40.0385 19.6329 39.5863 18.9743 38.9843L15.6873 35.6677L22.1154 29.1225L28.5435 35.663L25.2291 39.04C24.3401 39.9399 23.091 40.8955 21.2537 40.3481V40.311ZM37.6659 25.3976C37.3949 26.2547 36.9508 27.0448 36.362 27.7169L33.0659 31.029L26.6378 24.4884L33.0659 17.9478L36.3803 21.3202C37.2693 22.2201 38.2038 23.4957 37.6704 25.3605" fill="#00ABE4"/>
<path d="M64.9602 40.4826H70.7181V24.224C70.7181 19.2096 67.7229 15.5079 62.6123 15.5079C60.1232 15.5079 57.4562 16.6305 56.0703 18.6947V6.63406H50.3169V40.4687H56.0703V27.6427C56.0703 24.6461 57.5474 20.8981 60.9985 20.8981C64.0393 20.8981 64.9602 22.6283 64.9602 25.444V40.4826ZM88.2107 30.8666C88.2107 34.443 85.6988 36.3959 82.1382 36.3959C80.3557 36.3959 78.7555 35.2363 78.7555 33.3762C78.7555 31.4233 80.4469 30.3564 82.1838 30.2172L88.2107 29.7533V30.8666ZM93.0067 40.8584C93.9894 40.891 94.9639 40.6674 95.8378 40.209V35.9321C95.5986 35.9893 95.3541 36.0204 95.1084 36.0248C94.151 36.0248 93.7863 35.6074 93.7863 34.4894V25.5228C93.8582 23.8667 93.6247 22.2116 93.0979 20.6429C91.7302 17.0155 88.2563 15.7166 84.1943 15.7166C78.8923 15.7166 74.6433 18.1334 74.3242 23.57H79.8542C79.991 21.3387 81.541 20.1327 84.1943 20.1327C87.4357 20.1327 88.2107 21.6634 88.2107 23.941V25.4301L81.2173 25.9264C76.6949 26.2511 73.1799 28.8998 73.1799 33.5014C73.1799 37.4536 76.1022 41.0764 81.7689 41.0764C85.1471 41.0764 87.887 39.4065 88.9857 37.4536C89.1681 39.2673 90.5358 40.8445 93.0022 40.8445L93.0067 40.8584ZM110.946 21.464C111.251 21.4662 111.555 21.4864 111.858 21.5243V16.0506C111.612 16.0506 111.366 15.995 111.124 15.995C108.334 15.995 105.503 17.1546 104.409 19.9425L103.903 16.3197H99.0564V40.4873H104.814V28.3107C104.814 24.4049 106.916 21.4779 110.932 21.4779L110.946 21.464ZM128.963 40.4966H134.675V24.3585C134.675 19.3395 131.703 15.7166 126.633 15.7166C123.898 15.7166 121.062 16.8763 119.645 19.4276L119.234 16.315H114.452V40.4826H120.16V30.6347C120.16 28.589 120.114 26.0795 120.939 24.173C121.714 22.4056 123.041 21.1068 125.042 21.1068C128.056 21.1068 128.968 22.8278 128.968 25.662L128.963 40.4966ZM153.422 25.996H143.155C143.13 24.6334 143.566 23.3034 144.39 22.2294C144.865 21.6263 145.472 21.1445 146.162 20.8224C146.852 20.5002 147.607 20.3466 148.366 20.3739C149.029 20.3378 149.692 20.443 150.313 20.6826C150.934 20.9222 151.499 21.291 151.972 21.7655C152.884 22.7906 153.39 24.1823 153.435 25.996H153.422ZM159.143 28.5983C159.234 25.5785 158.824 22.837 157.087 20.1837C155.127 17.1639 151.926 15.7259 148.425 15.7259C147.022 15.6843 145.625 15.9347 144.321 16.462C143.016 16.9893 141.832 17.7822 140.839 18.7921C138.56 21.1625 137.415 24.5997 137.415 28.4591C137.415 32.4113 138.692 35.8022 141.062 38.1262C142.054 39.1051 143.228 39.8725 144.515 40.3831C145.802 40.8937 147.176 41.1373 148.557 41.0996C151.571 41.0996 154.539 40.1255 156.549 37.7087C157.461 36.5908 158.423 34.6889 158.56 33.2463H153.089C152.897 34.0211 152.501 34.7282 151.945 35.2919C151.124 36.1269 150.121 36.4516 148.475 36.4516C147.156 36.4472 145.891 35.9138 144.956 34.9672C144.364 34.3389 143.905 33.5943 143.607 32.7792C143.308 31.964 143.176 31.0954 143.219 30.2265H159.098C159.098 29.7116 159.143 28.5983 159.143 28.5983ZM166.811 23.069C166.825 22.5051 167.007 21.9588 167.332 21.5023C167.658 21.0459 168.112 20.7009 168.635 20.513C169.422 20.2128 170.262 20.0863 171.101 20.1419C172.236 20.1098 173.342 20.5064 174.206 21.2552C174.803 21.8596 175.146 22.6761 175.163 23.5328H180.602C180.534 21.667 179.784 19.894 178.5 18.5602C176.768 16.649 173.891 15.7213 171.06 15.7213C168.088 15.7213 165.589 16.6026 163.843 18.138C163.064 18.8004 162.441 19.6333 162.022 20.5746C161.603 21.516 161.398 22.5414 161.423 23.5746C161.423 26.6408 163.615 29.3358 166.857 30.0363C168.958 30.5002 171.334 30.6393 173.435 30.964C174.894 31.196 175.811 32.1237 175.811 33.5199C175.811 36.1686 172.888 36.5861 170.969 36.5861C169.323 36.5861 168.275 36.2614 167.358 35.5192C166.727 34.9437 166.303 34.1697 166.155 33.3205H160.775C160.996 35.2269 161.871 36.9928 163.246 38.3071C165.211 40.2136 167.905 41.0903 170.923 41.0903C174.165 41.0903 177.133 40.2553 179.052 38.3071C179.734 37.6137 180.269 36.7855 180.624 35.8736C180.979 34.9617 181.147 33.9855 181.117 33.0051C181.117 29.1921 178.382 26.7753 174.63 26.1723C172.3 25.8012 171.708 25.7548 169.56 25.4764C168.284 25.2909 166.825 24.776 166.825 23.0597L166.811 23.069ZM197.078 23.5236H202.499C202.43 21.6577 201.681 19.8847 200.397 18.5509C198.66 16.649 195.783 15.7213 192.97 15.7213C190.002 15.7213 187.5 16.6026 185.754 18.138C184.974 18.8004 184.351 19.6333 183.932 20.5746C183.513 21.516 183.308 22.5414 183.333 23.5746C183.333 26.6408 185.526 29.3358 188.767 30.0363C190.869 30.5002 193.244 30.6393 195.346 30.964C196.804 31.196 197.721 32.1237 197.721 33.5199C197.721 36.1686 194.794 36.5861 192.879 36.5861C191.233 36.5861 190.185 36.2614 189.269 35.5192C188.637 34.9437 188.213 34.1697 188.065 33.3205H182.667C182.888 35.228 183.765 36.9945 185.143 38.3071C187.103 40.2136 189.797 41.0903 192.815 41.0903C196.057 41.0903 199.025 40.2553 200.944 38.3071C201.624 37.6129 202.158 36.7844 202.511 35.8725C202.865 34.9607 203.031 33.9848 203 33.0051C203 29.1921 200.265 26.7753 196.513 26.1723C194.183 25.8012 193.59 25.7548 191.443 25.4764C190.167 25.2909 188.708 24.776 188.708 23.0597C188.721 22.4958 188.903 21.9495 189.229 21.493C189.554 21.0366 190.009 20.6916 190.531 20.5038C191.318 20.2035 192.159 20.077 192.998 20.1327C194.132 20.1005 195.238 20.4971 196.102 21.246C196.701 21.8498 197.045 22.6663 197.064 23.5236" fill="white"/>
</g>
<defs>
<clipPath id="clip0_3699_122">
<rect width="203" height="45" fill="white" transform="translate(0 2)"/>
</clipPath>
</defs>
</svg>
