<svg width="101" height="22" viewBox="0 0 101 22" fill="none" xmlns="http://www.w3.org/2000/svg">
<path fill-rule="evenodd" clip-rule="evenodd" d="M14.7194 1.65323L20.2287 7.20253H20.2242C21.7413 8.72881 22.2304 10.6111 21.6038 12.5047C21.3122 13.3594 20.8418 14.1413 20.2242 14.7974L14.7104 20.3468C13.6238 21.4376 12.3569 22 11.0337 22C10.4909 21.9976 9.95203 21.9073 9.43778 21.7324C8.58889 21.44 7.81238 20.9675 7.16101 20.3468L1.64494 14.7974C0.127852 13.2734 -0.361313 11.3889 0.267613 9.4953C0.558474 8.64075 1.02815 7.85893 1.64494 7.20253L7.16778 1.65323C8.68487 0.129258 10.5581 -0.362853 12.4404 0.267598C13.2898 0.560214 14.0669 1.03271 14.7194 1.65323ZM12.4877 3.91196C12.1613 3.61875 11.7773 3.39777 11.3606 3.26337L11.3651 3.2611C10.4589 2.9935 9.83899 3.46067 9.39942 3.90062L7.7606 5.55159L10.9391 8.74917L14.1175 5.55386L12.4877 3.91196ZM3.8969 9.43635C3.60441 9.76437 3.38396 10.1507 3.24994 10.5703L3.24769 10.5657C2.98394 11.4773 3.44605 12.101 3.88563 12.541L5.52444 14.1919L8.70512 10.9943L5.52669 7.79674L3.8969 9.43635ZM9.38594 18.0812C9.71154 18.3755 10.0958 18.5966 10.513 18.7298V18.748C11.4215 19.0155 12.0391 18.5484 12.4787 18.1085L14.1175 16.4574L10.9391 13.2599L7.7606 16.4598L9.38594 18.0812ZM17.9835 12.5727C18.2746 12.2441 18.4942 11.8578 18.6282 11.4388L18.6304 11.4206C18.8942 10.509 18.4321 9.88534 17.9925 9.44543L16.3537 7.79674L13.1752 10.9943L16.3537 14.1919L17.9835 12.5727ZM34.9716 18.8138H32.1246V11.4616C32.1246 10.085 31.6692 9.23916 30.1656 9.23916C28.4592 9.23916 27.7289 11.0715 27.7289 12.5366V18.807H24.884V2.26562H27.7289V8.16194C28.4141 7.15275 29.7328 6.60396 30.9636 6.60396C33.4906 6.60396 34.9716 8.41366 34.9716 10.8651V18.8138ZM40.6184 16.8159C42.379 16.8159 43.6211 15.8611 43.6211 14.1126V13.5684L40.641 13.7951C39.7822 13.8632 38.9458 14.3848 38.9458 15.3395C38.9458 16.2489 39.737 16.8159 40.6184 16.8159ZM47.3924 18.68C46.9603 18.9042 46.4784 19.0135 45.9925 18.9975L45.9902 18.9907C44.7707 18.9907 44.0944 18.2196 44.0043 17.3329C43.461 18.2877 42.1062 19.1041 40.4358 19.1041C37.6339 19.1041 36.1889 17.3329 36.1889 15.4007C36.1889 13.1511 37.9269 11.8562 40.1631 11.6975L43.6211 11.4548V10.7268C43.6211 9.6133 43.2379 8.86497 41.6351 8.86497C40.3231 8.86497 39.5567 9.45461 39.4891 10.5454H36.7547C36.9125 7.88754 39.0135 6.70601 41.6351 6.70601C43.6436 6.70601 45.3613 7.341 46.0376 9.11437C46.2981 9.88133 46.4135 10.6905 46.378 11.5001V15.8838C46.378 16.4304 46.5583 16.6345 47.0317 16.6345C47.1531 16.6323 47.2741 16.6171 47.3924 16.5891V18.68ZM55.3137 9.54526C55.164 9.52675 55.0136 9.51692 54.8628 9.51582L54.856 9.52259C52.8701 9.52259 51.8309 10.9536 51.8309 12.8631V18.8161H48.9839V7.00083H51.3801L51.6303 8.77194C52.1713 7.40904 53.5712 6.84208 54.9507 6.84208C55.0102 6.84208 55.0702 6.84881 55.1305 6.85558C55.1914 6.86241 55.2525 6.86927 55.3137 6.86927V9.54526ZM66.5958 18.8206H63.7714L63.7737 11.5682C63.7737 10.1825 63.3231 9.34116 61.8327 9.34116C60.8435 9.34116 60.1874 9.97615 59.8038 10.8402C59.4161 11.7263 59.4173 12.8789 59.4184 13.8497C59.4185 13.9001 59.4185 13.9499 59.4185 13.9993V18.8138H56.5963V6.99851H58.9609L59.164 8.52022C59.8652 7.27297 61.2669 6.70601 62.6196 6.70601C65.1263 6.70601 66.5958 8.47712 66.5958 10.9309V18.8206ZM70.789 11.7315H75.8651H75.872C75.8495 10.8448 75.5995 10.1644 75.1483 9.66323C74.9146 9.43124 74.6351 9.25097 74.3285 9.13381C74.0213 9.01666 73.6933 8.96523 73.3652 8.98287C72.9904 8.96957 72.6172 9.04466 72.2759 9.20214C71.9345 9.35961 71.6343 9.59519 71.4 9.89001C70.9921 10.4151 70.7763 11.0653 70.789 11.7315ZM77.6776 8.8899C78.5368 10.1871 78.7393 11.5274 78.6941 13.0037C78.6941 13.0037 78.6716 13.5479 78.6716 13.7997H70.8203C70.7994 14.2245 70.8642 14.6492 71.0123 15.0477C71.1599 15.4462 71.3867 15.8102 71.6794 16.1174C72.1416 16.5802 72.767 16.8409 73.4196 16.8431C74.233 16.8431 74.7294 16.6843 75.135 16.2761C75.4104 16.0006 75.6059 15.6548 75.7008 15.2761H78.406C78.3383 15.9814 77.8628 16.9111 77.4115 17.4577C76.4176 18.6392 74.9499 19.1154 73.4601 19.1154C72.7775 19.1339 72.0977 19.0148 71.4613 18.7651C70.8249 18.5155 70.2446 18.1404 69.754 17.6618C68.5819 16.5256 67.9507 14.8679 67.9507 12.9357C67.9507 11.0489 68.5165 9.36841 69.6435 8.20955C70.1347 7.71583 70.7202 7.32816 71.3652 7.07043C72.0103 6.81263 72.7011 6.69016 73.3948 6.71052C75.1257 6.71052 76.7086 7.41355 77.6776 8.8899ZM82.7433 9.53456C82.5825 9.7577 82.4928 10.0248 82.4858 10.3005L82.4928 10.2959C82.4928 11.135 83.2142 11.3867 83.8454 11.4774C84.1203 11.5127 84.3436 11.5403 84.5437 11.5651C85.1164 11.6359 85.4986 11.6832 86.3522 11.8176C88.207 12.1124 89.5596 13.294 89.5596 15.1581C89.5746 15.6374 89.4913 16.1147 89.316 16.5605C89.1401 17.0063 88.8757 17.4113 88.5385 17.7502C87.5897 18.7027 86.1219 19.1109 84.5194 19.1109C83.0268 19.1109 81.695 18.6823 80.723 17.7502C80.0433 17.1077 79.6105 16.2444 79.5012 15.3123H82.1613C82.2348 15.7275 82.4442 16.1059 82.7566 16.3873C83.2096 16.7501 83.7279 16.9089 84.5419 16.9089C85.4907 16.9089 86.9359 16.7048 86.9359 15.4098C86.9359 14.7272 86.4829 14.2737 85.7615 14.1603C85.368 14.1002 84.9552 14.0531 84.5377 14.0055C83.8522 13.9273 83.1541 13.8476 82.5084 13.7067C80.9059 13.3643 79.8217 12.0467 79.8217 10.5477C79.8095 10.0426 79.9108 9.54121 80.1179 9.08099C80.325 8.62083 80.6328 8.2136 81.0187 7.8898C81.8818 7.13915 83.117 6.70826 84.5871 6.70826C85.9865 6.70826 87.4092 7.16183 88.266 8.09616C88.9006 8.74828 89.2715 9.61503 89.305 10.5273H86.6154C86.6073 10.1084 86.4378 9.70922 86.1422 9.41376C85.7152 9.04767 85.1679 8.85375 84.6073 8.86948C84.1925 8.84229 83.7765 8.90414 83.3878 9.05091C83.1292 9.14272 82.9047 9.31142 82.7433 9.53456ZM100.132 10.5227H97.4519H97.445C97.4357 10.1036 97.2651 9.70448 96.9694 9.40919C96.5419 9.0431 95.9952 8.84923 95.434 8.86497C95.0192 8.83772 94.6038 8.89957 94.2145 9.0464C93.9564 9.13821 93.7314 9.30685 93.5705 9.52999C93.4097 9.75319 93.3195 10.0203 93.3131 10.2959C93.3131 11.135 94.0345 11.3867 94.6657 11.4774C94.9399 11.5126 95.1627 11.5402 95.3624 11.5649C95.9358 11.6358 96.3175 11.683 97.1719 11.8176C99.0273 12.1124 100.38 13.294 100.38 15.1581C100.396 15.6371 100.313 16.1142 100.138 16.56C99.9633 17.0058 99.6995 17.4108 99.3634 17.7502C98.414 18.7027 96.9469 19.1109 95.3438 19.1109C93.8517 19.1109 92.5194 18.6823 91.5503 17.7502C90.8688 17.1085 90.4349 16.2449 90.3261 15.3123H92.9949C93.0684 15.7275 93.2778 16.1059 93.5902 16.3873C94.0432 16.7501 94.5616 16.9089 95.3756 16.9089C96.3221 16.9089 97.7696 16.7048 97.7696 15.4098C97.7696 14.7272 97.3166 14.2737 96.5951 14.1603C96.2016 14.1001 95.7886 14.053 95.3709 14.0054C94.6858 13.9272 93.9879 13.8476 93.342 13.7067C91.7395 13.3643 90.6553 12.0467 90.6553 10.5477C90.6432 10.0426 90.7444 9.54121 90.9515 9.08099C91.1586 8.62083 91.467 8.2136 91.8523 7.8898C92.7155 7.13915 93.953 6.70826 95.4207 6.70826C96.8115 6.70826 98.2341 7.16183 99.0927 8.09165C99.7279 8.74371 100.098 9.61052 100.132 10.5227Z" fill="white"/>
</svg>
