<svg width="91" height="21" viewBox="0 0 91 21" fill="none" xmlns="http://www.w3.org/2000/svg">
<path d="M4.4467 16.264C3.6547 16.264 2.94336 16.11 2.3127 15.802C1.6967 15.4793 1.2127 14.988 0.860695 14.328C0.508695 13.6533 0.332695 12.7807 0.332695 11.71V4.912H1.3227V11.578C1.3227 12.8687 1.60136 13.822 2.1587 14.438C2.7307 15.054 3.55203 15.362 4.6227 15.362C5.34136 15.362 5.97203 15.1933 6.5147 14.856C7.07203 14.5187 7.5047 14.02 7.8127 13.36C8.13536 12.6853 8.2967 11.864 8.2967 10.896V4.912H9.2867V16H8.4287L8.2967 13.756C7.93003 14.6067 7.40203 15.2373 6.7127 15.648C6.02336 16.0587 5.26803 16.264 4.4467 16.264ZM12.4126 16V4.912H13.2926L13.3806 7.156C13.7619 6.32 14.2899 5.69667 14.9646 5.286C15.6539 4.86067 16.4166 4.648 17.2526 4.648C18.0593 4.648 18.7706 4.80933 19.3866 5.132C20.0026 5.45467 20.4866 5.95333 20.8386 6.628C21.1906 7.288 21.3666 8.146 21.3666 9.202V16H20.3766V9.356C20.3766 8.05067 20.0979 7.09 19.5406 6.474C18.9833 5.858 18.1766 5.55 17.1206 5.55C16.4166 5.55 15.7786 5.726 15.2066 6.078C14.6493 6.41533 14.2093 6.914 13.8866 7.574C13.5639 8.234 13.4026 9.048 13.4026 10.016V16H12.4126ZM24.3825 16V4.912H25.3725V16H24.3825ZM24.8885 1.986C24.6831 1.986 24.4998 1.91267 24.3385 1.766C24.1918 1.60467 24.1185 1.414 24.1185 1.194C24.1185 0.973999 24.1918 0.797999 24.3385 0.665999C24.4998 0.519333 24.6831 0.446 24.8885 0.446C25.0938 0.446 25.2698 0.519333 25.4165 0.665999C25.5778 0.797999 25.6585 0.973999 25.6585 1.194C25.6585 1.414 25.5778 1.60467 25.4165 1.766C25.2698 1.91267 25.0938 1.986 24.8885 1.986ZM31.9993 16L27.6653 4.912H28.7433L32.5713 14.966L36.3993 4.912H37.4553L33.1213 16H31.9993ZM43.6717 16.264C42.6303 16.264 41.7283 16.022 40.9657 15.538C40.2177 15.054 39.6383 14.372 39.2277 13.492C38.817 12.612 38.6117 11.578 38.6117 10.39C38.6117 9.18733 38.8243 8.16067 39.2497 7.31C39.6897 6.45933 40.291 5.80667 41.0537 5.352C41.831 4.88267 42.7183 4.648 43.7157 4.648C44.7863 4.648 45.681 4.89 46.3997 5.374C47.1183 5.84333 47.661 6.46667 48.0277 7.244C48.3943 8.02133 48.5777 8.872 48.5777 9.796C48.5777 9.94267 48.5777 10.082 48.5777 10.214C48.5777 10.346 48.5703 10.5 48.5557 10.676H39.3157V9.818H47.6097C47.595 8.39533 47.221 7.32467 46.4877 6.606C45.7543 5.88733 44.8157 5.528 43.6717 5.528C42.9677 5.528 42.3077 5.68933 41.6917 6.012C41.0757 6.33467 40.5697 6.83333 40.1737 7.508C39.7923 8.18267 39.6017 9.04067 39.6017 10.082V10.478C39.6017 11.5927 39.7923 12.5167 40.1737 13.25C40.555 13.9687 41.0537 14.504 41.6697 14.856C42.2857 15.208 42.953 15.384 43.6717 15.384C44.5957 15.384 45.3583 15.1713 45.9597 14.746C46.561 14.306 47.001 13.69 47.2797 12.898H48.2697C48.079 13.5433 47.7783 14.1227 47.3677 14.636C46.9717 15.1493 46.4657 15.5527 45.8497 15.846C45.2337 16.1247 44.5077 16.264 43.6717 16.264ZM51.063 16V4.912H51.943L52.053 7.156C52.3023 6.56933 52.625 6.09267 53.021 5.726C53.4316 5.35933 53.9156 5.088 54.473 4.912C55.0303 4.736 55.661 4.648 56.365 4.648V5.66H55.969C55.529 5.66 55.0743 5.71867 54.605 5.836C54.1503 5.95333 53.725 6.166 53.329 6.474C52.9476 6.76733 52.6396 7.19267 52.405 7.75C52.1703 8.30733 52.053 9.01867 52.053 9.884V16H51.063ZM62.2177 16.264C61.411 16.264 60.685 16.132 60.0397 15.868C59.3943 15.5893 58.8737 15.1787 58.4777 14.636C58.0963 14.0933 57.8543 13.4187 57.7517 12.612H58.8077C58.8663 13.1987 59.0497 13.6973 59.3577 14.108C59.6803 14.5187 60.091 14.834 60.5897 15.054C61.0883 15.2593 61.6383 15.362 62.2397 15.362C62.841 15.362 63.347 15.2667 63.7577 15.076C64.183 14.8853 64.5057 14.6213 64.7257 14.284C64.9603 13.932 65.0777 13.5433 65.0777 13.118C65.0777 12.5753 64.9603 12.1573 64.7257 11.864C64.5057 11.556 64.1683 11.3213 63.7137 11.16C63.259 10.9987 62.687 10.852 61.9977 10.72C61.4403 10.6173 60.9343 10.4853 60.4797 10.324C60.0397 10.1627 59.6583 9.96467 59.3357 9.73C59.013 9.49533 58.7637 9.20933 58.5877 8.872C58.4263 8.52 58.3457 8.124 58.3457 7.684C58.3457 7.08267 58.4923 6.55467 58.7857 6.1C59.0937 5.64533 59.519 5.29333 60.0617 5.044C60.6043 4.78 61.2497 4.648 61.9977 4.648C63.0537 4.648 63.9263 4.92667 64.6157 5.484C65.3197 6.04133 65.723 6.86267 65.8257 7.948H64.8137C64.7697 7.22933 64.4983 6.65 63.9997 6.21C63.5157 5.77 62.841 5.55 61.9757 5.55C61.1397 5.55 60.4943 5.74067 60.0397 6.122C59.5997 6.48867 59.3797 6.98 59.3797 7.596C59.3797 7.948 59.4677 8.26333 59.6437 8.542C59.8343 8.82067 60.135 9.07 60.5457 9.29C60.9563 9.49533 61.5063 9.67133 62.1957 9.818C62.9143 9.95 63.567 10.1187 64.1537 10.324C64.755 10.5293 65.2317 10.8373 65.5837 11.248C65.9357 11.6587 66.1117 12.2453 66.1117 13.008C66.1117 13.6387 65.9503 14.2033 65.6277 14.702C65.3197 15.186 64.8723 15.5673 64.2857 15.846C63.7137 16.1247 63.0243 16.264 62.2177 16.264ZM68.9411 16V4.912H69.9311V16H68.9411ZM69.4471 1.986C69.2417 1.986 69.0584 1.91267 68.8971 1.766C68.7504 1.60467 68.6771 1.414 68.6771 1.194C68.6771 0.973999 68.7504 0.797999 68.8971 0.665999C69.0584 0.519333 69.2417 0.446 69.4471 0.446C69.6524 0.446 69.8284 0.519333 69.9751 0.665999C70.1364 0.797999 70.2171 0.973999 70.2171 1.194C70.2171 1.414 70.1364 1.60467 69.9751 1.766C69.8284 1.91267 69.6524 1.986 69.4471 1.986ZM77.0639 16C76.4772 16 75.9785 15.912 75.5679 15.736C75.1719 15.56 74.8639 15.2593 74.6439 14.834C74.4385 14.394 74.3359 13.8073 74.3359 13.074V5.77H72.3999V4.912H74.3359L74.4899 2.492H75.3259V4.912H78.8019V5.77H75.3259V13.052C75.3259 13.8293 75.4799 14.372 75.7879 14.68C76.0959 14.988 76.6165 15.142 77.3499 15.142H78.5819V16H77.0639ZM82.1746 20.84L84.9686 14.768H84.5946L80.0406 4.912H81.1406L85.2986 14.02L89.5006 4.912H90.5566L83.2086 20.84H82.1746Z" fill="white"/>
</svg>
