<svg width="100" height="22" viewBox="0 0 100 22" fill="none" xmlns="http://www.w3.org/2000/svg">
<g clip-path="url(#clip0_1_19330)">
<path d="M20.1491 7.13258L14.6604 1.63717C14.0104 1.02268 13.2361 0.554771 12.3899 0.264998C10.5147 -0.359328 8.64844 0.128002 7.13703 1.63717L1.63488 7.13258C1.02039 7.78258 0.552479 8.55683 0.262706 9.40307C-0.363866 11.2783 0.123468 13.1445 1.63488 14.6537L7.1303 20.1491C7.77926 20.7638 8.55282 21.2318 9.39853 21.5213C9.91086 21.6945 10.4477 21.784 10.9885 21.7863C12.3068 21.7863 13.5689 21.2293 14.6514 20.1491L20.1446 14.6537C20.7599 14.0039 21.2286 13.2297 21.519 12.3832C22.1433 10.508 21.656 8.64399 20.1446 7.13258H20.1491ZM11.3142 3.23167C11.7293 3.36477 12.1119 3.58359 12.4371 3.87396L14.0608 5.49991L10.8942 8.66421L7.72767 5.49766L9.36035 3.86273C9.79828 3.42705 10.4159 2.96442 11.3187 3.22942L11.3142 3.23167ZM3.23387 10.4676C3.36739 10.0521 3.58701 9.6695 3.87841 9.34468L5.50211 7.72098L8.66865 10.8875L5.49986 14.0541L3.86718 12.4191C3.42925 11.9835 2.96887 11.3659 3.23162 10.4631L3.23387 10.4676ZM10.4698 18.5479C10.0541 18.416 9.67131 18.197 9.34688 17.9056L7.72767 16.2999L10.8942 13.1311L14.0608 16.2976L12.4281 17.9325C11.9902 18.3682 11.3748 18.8308 10.4698 18.5658V18.5479ZM18.5546 11.3277C18.4211 11.7427 18.2023 12.1252 17.9123 12.4506L16.2886 14.0541L13.122 10.8875L16.2886 7.72098L17.9213 9.35366C18.3592 9.78934 18.8196 10.4069 18.5568 11.3097" fill="#00ADE4"/>
<path d="M32.0001 18.6311H34.8365V10.7596C34.8365 8.33195 33.361 6.53983 30.8435 6.53983C29.6173 6.53983 28.3035 7.0833 27.6208 8.08268V2.24365H24.7866V18.6244H27.6208V12.4148C27.6208 10.964 28.3484 9.14942 30.0485 9.14942C31.5464 9.14942 32.0001 9.98709 32.0001 11.3503V18.6311ZM43.4535 13.9756C43.4535 15.7071 42.2161 16.6526 40.4622 16.6526C39.5841 16.6526 38.7958 16.0911 38.7958 15.1906C38.7958 14.2451 39.629 13.7286 40.4846 13.6612L43.4535 13.4366V13.9756ZM45.8161 18.813C46.3002 18.8288 46.7802 18.7206 47.2107 18.4986V16.428C47.0929 16.4557 46.9724 16.4708 46.8514 16.4729C46.3798 16.4729 46.2001 16.2708 46.2001 15.7295V11.3885C46.2355 10.5867 46.1205 9.78535 45.861 9.0259C45.1873 7.2697 43.476 6.64088 41.475 6.64088C38.8632 6.64088 36.7701 7.81094 36.6129 10.443H39.337C39.4044 9.36277 40.168 8.77887 41.475 8.77887C43.0717 8.77887 43.4535 9.51997 43.4535 10.6227V11.3435L40.0085 11.5838C37.7807 11.741 36.0492 13.0234 36.0492 15.2512C36.0492 17.1646 37.4887 18.9186 40.2802 18.9186C41.9444 18.9186 43.2941 18.1101 43.8353 17.1646C43.9251 18.0427 44.5989 18.8063 45.8138 18.8063L45.8161 18.813ZM54.6532 9.42341C54.8034 9.4245 54.9533 9.43425 55.1024 9.4526V6.80258C54.9811 6.80258 54.8598 6.77563 54.7408 6.77563C53.3664 6.77563 51.9718 7.33708 51.4328 8.68679L51.1835 6.93284H48.7962V18.6333H51.6327V12.7382C51.6327 10.8472 52.668 9.43014 54.6465 9.43014L54.6532 9.42341ZM63.5285 18.6378H66.3425V10.8248C66.3425 8.39484 64.8782 6.64088 62.3809 6.64088C61.0335 6.64088 59.6366 7.20233 58.9382 8.43751L58.736 6.93059H56.3802V18.6311H59.1919V13.8633C59.1919 12.8729 59.1695 11.658 59.576 10.7349C59.9577 9.8793 60.6113 9.25048 61.5972 9.25048C63.0816 9.25048 63.5308 10.0837 63.5308 11.4558L63.5285 18.6378ZM75.5771 11.6175H70.5196C70.5072 10.9578 70.7221 10.314 71.1283 9.79396C71.3621 9.50201 71.661 9.26875 72.001 9.11278C72.341 8.95682 72.7127 8.88246 73.0866 8.89565C73.4132 8.87819 73.74 8.9291 74.0458 9.04511C74.3517 9.16112 74.63 9.33968 74.863 9.56938C75.3121 10.0657 75.5614 10.7394 75.5839 11.6175H75.5771ZM78.3956 12.8774C78.4405 11.4154 78.2384 10.0882 77.3827 8.80357C76.417 7.34157 74.8405 6.64538 73.1158 6.64538C72.4246 6.62521 71.7366 6.74648 71.094 7.00175C70.4514 7.25702 69.8677 7.6409 69.3788 8.12984C68.2559 9.27743 67.6922 10.9415 67.6922 12.81C67.6922 14.7234 68.321 16.3651 69.4888 17.4902C69.9772 17.9642 70.5554 18.3357 71.1895 18.5829C71.8235 18.8301 72.5006 18.9481 73.1809 18.9298C74.6653 18.9298 76.1273 18.4582 77.1177 17.2881C77.5669 16.7469 78.0408 15.8261 78.1081 15.1277H75.4132C75.3186 15.5028 75.1237 15.8452 74.8495 16.1181C74.4453 16.5223 73.9512 16.6795 73.1405 16.6795C72.4905 16.6774 71.8676 16.4192 71.4067 15.9609C71.1154 15.6567 70.8893 15.2962 70.7422 14.9015C70.595 14.5069 70.53 14.0863 70.5511 13.6657H78.3731C78.3731 13.4164 78.3956 12.8774 78.3956 12.8774ZM82.173 10.2004C82.1797 9.92745 82.2692 9.66295 82.4296 9.44196C82.59 9.22098 82.8138 9.05396 83.0713 8.96302C83.459 8.81766 83.8731 8.75642 84.2863 8.78336C84.8452 8.76779 85.39 8.9598 85.8156 9.32234C86.1098 9.61493 86.2788 10.0102 86.2873 10.425H88.9665C88.9328 9.52169 88.5637 8.66332 87.9312 8.01755C87.0778 7.09229 85.6607 6.64313 84.266 6.64313C82.8018 6.64313 81.5711 7.06983 80.711 7.81318C80.3269 8.13385 80.0202 8.5371 79.8137 8.99284C79.6073 9.44858 79.5063 9.94505 79.5185 10.4452C79.5185 11.9297 80.5987 13.2345 82.1954 13.5736C83.2307 13.7982 84.4008 13.8656 85.4361 14.0228C86.1548 14.135 86.6061 14.5842 86.6061 15.2602C86.6061 16.5425 85.1666 16.7446 84.2211 16.7446C83.4104 16.7446 82.8939 16.5874 82.4425 16.2281C82.1315 15.9495 81.9227 15.5747 81.8496 15.1636H79.1996C79.3083 16.0866 79.7394 16.9415 80.4168 17.5778C81.3847 18.5008 82.712 18.9253 84.1987 18.9253C85.7954 18.9253 87.2574 18.5211 88.2029 17.5778C88.5388 17.2421 88.8024 16.8412 88.9773 16.3997C89.1523 15.9582 89.235 15.4856 89.2202 15.0109C89.2202 13.1649 87.8728 11.9948 86.0245 11.7029C84.8769 11.5232 84.585 11.5007 83.5272 11.366C82.8984 11.2762 82.1797 11.0269 82.1797 10.196L82.173 10.2004ZM97.0827 10.4205H99.7529C99.7193 9.5172 99.3502 8.65883 98.7176 8.01306C97.862 7.09229 96.4449 6.64313 95.0593 6.64313C93.5973 6.64313 92.3643 7.06983 91.5042 7.81318C91.1201 8.13385 90.8134 8.5371 90.6069 8.99284C90.4005 9.44858 90.2995 9.94505 90.3117 10.4452C90.3117 11.9297 91.3919 13.2345 92.9887 13.5736C94.024 13.7982 95.194 13.8656 96.2293 14.0228C96.948 14.135 97.3994 14.5842 97.3994 15.2602C97.3994 16.5425 95.9576 16.7446 95.0143 16.7446C94.2036 16.7446 93.6871 16.5874 93.2357 16.2281C92.9247 15.9495 92.7159 15.5747 92.6428 15.1636H89.9838C90.0924 16.0871 90.5244 16.9424 91.2033 17.5778C92.1689 18.5008 93.4962 18.9253 94.9829 18.9253C96.5796 18.9253 98.0416 18.5211 98.9871 17.5778C99.3222 17.2418 99.585 16.8406 99.7591 16.3992C99.9333 15.9577 100.015 15.4852 100 15.0109C100 13.1649 98.6525 11.9948 96.8042 11.7029C95.6566 11.5232 95.3647 11.5007 94.3069 11.366C93.6781 11.2762 92.9595 11.0269 92.9595 10.196C92.9662 9.92297 93.0557 9.65846 93.2161 9.43748C93.3765 9.21649 93.6003 9.04947 93.8578 8.95853C94.2454 8.81317 94.6596 8.75193 95.0727 8.77887C95.6316 8.7633 96.1765 8.95532 96.6021 9.31785C96.8968 9.61021 97.0667 10.0055 97.076 10.4205" fill="white"/>
</g>
<defs>
<clipPath id="clip0_1_19330">
<rect width="100" height="21.7863" fill="white"/>
</clipPath>
</defs>
</svg>
